<svg xmlns="http://www.w3.org/2000/svg" xmlns:xlink="http://www.w3.org/1999/xlink" width="18" height="18" viewBox="0 0 18 18">
    <defs>
        <circle id="a" cx="9" cy="9" r="9"/>
    </defs>
    <g fill="none" fill-rule="evenodd">
        <mask id="b" fill="#fff">
            <use xlink:href="#a"/>
        </mask>
        <circle cx="9" cy="9" r="8.75" stroke="#FF6740" stroke-width=".5"/>
        <path fill="#FFF" d="M6.175 14.19C4.114 13.202 2.7 11.165 2.7 8.814 2.7 5.492 5.52 2.8 9 2.8s6.3 2.692 6.3 6.014c0 2.351-1.414 4.388-3.475 5.376a3.871 3.871 0 0 1 2.575 3.644 3.87 3.87 0 0 1-3.869 3.866H7.47A3.87 3.87 0 0 1 3.6 17.834a3.87 3.87 0 0 1 2.575-3.644zM9 13.968c2.485 0 4.5-1.923 4.5-4.295 0-2.373-2.015-4.296-4.5-4.296S4.5 7.3 4.5 9.673c0 2.372 2.015 4.295 4.5 4.295zm2.25-6.013a.44.44 0 0 1-.45-.43.44.44 0 0 1 .45-.43.44.44 0 0 1 .45.43.44.44 0 0 1-.45.43zm.9.859a.44.44 0 0 1-.45-.43.44.44 0 0 1 .45-.43.44.44 0 0 1 .45.43.44.44 0 0 1-.45.43zm-5.85 8.59a1.71 1.71 0 0 0 1.709 1.719H9.99c.935 0 1.709-.77 1.709-1.718a1.71 1.71 0 0 0-1.709-1.719H8.01c-.935 0-1.709.77-1.709 1.719z" mask="url(#b)"/>
    </g>
</svg>
