<svg xmlns="http://www.w3.org/2000/svg" xmlns:xlink="http://www.w3.org/1999/xlink" width="18" height="18" viewBox="0 0 18 18">
    <defs>
        <circle id="a" cx="9" cy="9" r="9"/>
    </defs>
    <g fill="none" fill-rule="evenodd">
        <mask id="b" fill="#fff">
            <use xlink:href="#a"/>
        </mask>
        <circle cx="9" cy="9" r="8.75" stroke="#FF6740" stroke-width=".5"/>
        <path fill="#FFF" d="M8.447 14.357c-.33-.172-.552-.496-.552-.866 0-.552.495-1 1.105-1s1.105.448 1.105 1c0 .37-.222.694-.552.866v.907c0 .31-.257.56-.553.56a.548.548 0 0 1-.553-.56v-.907zm4.22-5.2h.667c1.472 0 2.666 1.201 2.666 2.678v5.477a2.672 2.672 0 0 1-2.666 2.678H4.666A2.673 2.673 0 0 1 2 17.312v-5.477a2.672 2.672 0 0 1 2.666-2.677h.667V7.666A3.669 3.669 0 0 1 9 4a3.662 3.662 0 0 1 3.667 3.666v1.492zm-6.307 0h5.28V7.64a2.64 2.64 0 0 0-5.28 0v1.518zM3 12.003v4.917a2 2 0 0 0 2.009 2.002h7.982A2.007 2.007 0 0 0 15 16.919v-4.917A2 2 0 0 0 12.991 10H5.01A2.007 2.007 0 0 0 3 12.002zM13.5 12a.5.5 0 1 1 0-1 .5.5 0 0 1 0 1zm-.5 1.508a.51.51 0 0 1 .5-.508.5.5 0 0 1 .5.508v.484a.51.51 0 0 1-.5.508.5.5 0 0 1-.5-.508v-.484z" mask="url(#b)"/>
    </g>
</svg>
